<svg width="33" height="32" viewBox="0 0 33 32" fill="none" xmlns="http://www.w3.org/2000/svg">
<g id="behance-svgrepo-com 1" clip-path="url(#clip0_1949_96)">
<g id="Group">
<path id="Vector" fill-rule="evenodd" clip-rule="evenodd" d="M13.4982 17.0595C13.1045 16.7608 12.5795 16.6123 11.9337 16.6123H8.67188V20.3648H11.8736C12.1697 20.3648 12.4506 20.3386 12.7149 20.2794C12.9832 20.2208 13.2212 20.1278 13.4219 19.9904C13.6225 19.8582 13.7887 19.6771 13.9095 19.4467C14.0308 19.2183 14.0889 18.9217 14.0889 18.5634C14.0889 17.8609 13.8913 17.3624 13.4982 17.0595Z" fill="#141414"/>
<path id="Vector_2" fill-rule="evenodd" clip-rule="evenodd" d="M13.0282 14.1821C13.3733 13.9302 13.5406 13.5138 13.5406 12.9428C13.5406 12.6257 13.485 12.3637 13.3733 12.1603C13.2576 11.9569 13.1045 11.7978 12.9109 11.6864C12.7189 11.5704 12.5021 11.4903 12.2505 11.4471C12.0034 11.3988 11.7442 11.3799 11.4788 11.3799H8.67175V14.5641H11.7077C12.2394 14.5641 12.6796 14.438 13.0282 14.1821Z" fill="#141414"/>
<path id="Vector_3" fill-rule="evenodd" clip-rule="evenodd" d="M0.748169 0V32H32.7482V0H0.748169ZM20.1336 9.97289H25.6573V11.3176H20.1336V9.97289ZM16.6852 20.5157C16.4185 21.0223 16.0551 21.4328 15.6074 21.7497C15.1561 22.0693 14.6376 22.3037 14.057 22.4563C13.483 22.609 12.8867 22.6857 12.2763 22.6857H5.67125V9.05874H12.0959C12.7478 9.05874 13.336 9.11508 13.8737 9.23161C14.4083 9.34505 14.8646 9.53431 15.2501 9.79376C15.6296 10.0533 15.9268 10.3984 16.1395 10.8332C16.3471 11.2615 16.4513 11.7979 16.4513 12.4321C16.4513 13.1181 16.2957 13.6911 15.9844 14.1491C15.6706 14.6064 15.2098 14.9817 14.5938 15.273C15.4326 15.514 16.0537 15.9385 16.4654 16.5421C16.8793 17.1498 17.082 17.8769 17.082 18.7294C17.0819 19.4204 16.9495 20.0155 16.6852 20.5157ZM27.8079 18.4047H20.6879C20.6879 19.1847 20.9516 19.9232 21.359 20.3196C21.7647 20.716 22.3514 20.9153 23.1114 20.9153C23.6581 20.9153 24.1306 20.7771 24.5268 20.5017C24.9194 20.2266 25.1584 19.9325 25.2509 19.627H27.6375C27.254 20.8148 26.6719 21.6627 25.878 22.1731C25.0933 22.6857 24.1361 22.9412 23.0209 22.9412C22.2437 22.9412 21.5444 22.8154 20.9163 22.5675C20.2886 22.3166 19.7641 21.9649 19.323 21.5066C18.8929 21.046 18.5589 20.5018 18.321 19.8623C18.0855 19.2263 17.9667 18.5222 17.9667 17.7591C17.9667 17.0213 18.09 16.332 18.331 15.6951C18.5771 15.0558 18.9172 14.5043 19.3644 14.0417C19.8126 13.5765 20.3442 13.2094 20.9632 12.9414C21.5823 12.6743 22.2649 12.5399 23.0209 12.5399C23.8557 12.5399 24.5869 12.7005 25.2135 13.0277C25.8381 13.3504 26.35 13.7878 26.7522 14.3353C27.1544 14.8818 27.4405 15.5069 27.6194 16.208C27.7968 16.908 27.8589 17.6392 27.8079 18.4047Z" fill="#141414"/>
<path id="Vector_4" fill-rule="evenodd" clip-rule="evenodd" d="M22.9396 14.5859C22.5066 14.5859 22.1482 14.6587 21.8613 14.8073C21.5808 14.9538 21.3509 15.1362 21.1751 15.351C21.0003 15.5693 20.881 15.7997 20.8118 16.0461C20.7421 16.2861 20.7006 16.5039 20.688 16.6965H25.0974C25.0327 16.0054 24.7962 15.4945 24.4728 15.1353C24.1509 14.7787 23.6051 14.5859 22.9396 14.5859Z" fill="#141414"/>
</g>
</g>
<defs>
<clipPath id="clip0_1949_96">
<rect width="32" height="32" fill="white" transform="translate(0.748169)"/>
</clipPath>
</defs>
</svg>
