<svg width="24" height="24" viewBox="0 0 24 24" fill="none" xmlns="http://www.w3.org/2000/svg">
<g clip-path="url(#clip0_1949_119)">
<path d="M15.1882 12.4544C15.2115 12.3011 15.2215 12.1479 15.2215 11.9879C15.2215 11.828 15.2115 11.6914 15.1916 11.5448L20.5219 11.708C21.0783 11.7247 21.6213 11.5281 22.0378 11.1583C23.0472 10.2587 24.6829 8.4694 23.6968 6.99668C22.7307 5.55395 20.0822 3.15161 14.5652 10.0287C14.382 9.78552 14.1655 9.56894 13.9223 9.38568L17.7901 5.71388C18.1932 5.33071 18.4364 4.80759 18.4631 4.24782C18.533 2.89505 18.4098 0.476062 16.6707 0.139536C14.965 -0.190327 11.397 0.00625713 12.4031 8.76261C12.2599 8.74262 12.1166 8.73262 11.97 8.73262C11.8068 8.73262 11.6502 8.74595 11.4936 8.76927L11.6035 3.43816C11.6135 2.88173 11.4137 2.34195 11.0372 1.92879C10.1277 0.925875 8.31871 -0.686787 6.85952 0.312797C5.42698 1.29239 3.05497 3.96794 9.98445 9.41234C9.74458 9.59893 9.53137 9.8155 9.34814 10.0621L5.63686 6.23366C5.24708 5.83383 4.72404 5.59726 4.16435 5.57394C2.81177 5.51729 0.393111 5.6639 0.0766199 7.40651C-0.236539 9.1158 -0.00333589 12.681 8.74181 11.5881C8.72515 11.718 8.71515 11.8513 8.71515 11.9879C8.71515 12.1612 8.72848 12.3311 8.75513 12.4977L3.42476 12.4444C2.8684 12.4377 2.3287 12.6477 1.92226 13.0275C0.929479 13.9471 -0.666301 15.773 0.349801 17.2224C1.34258 18.6452 4.04108 20.9908 9.4181 14.0004C9.60799 14.2403 9.82787 14.4502 10.0744 14.6302L6.28317 18.3819C5.88673 18.7751 5.65685 19.3016 5.6402 19.8613C5.59689 21.2141 5.77012 23.6331 7.51582 23.933C9.2282 24.2262 12.7929 23.9596 11.6069 15.2233C11.7268 15.2366 11.8501 15.2432 11.9733 15.2432C12.1566 15.2432 12.3398 15.2266 12.5164 15.1966V20.531C12.5164 21.0875 12.7296 21.6239 13.1127 22.0271C14.0422 23.01 15.8845 24.586 17.3237 23.5564C18.7363 22.5469 21.0516 19.8247 14.0122 14.5202C14.2154 14.3569 14.3953 14.1704 14.5552 13.9638L18.1866 17.8688C18.5663 18.2786 19.0861 18.5219 19.6457 18.5585C20.995 18.6418 23.417 18.5452 23.7701 16.8093C24.1166 15.1066 23.96 11.5348 15.1916 12.4511L15.1882 12.4544ZM11.97 14.2137C10.744 14.2137 9.74458 13.2174 9.74458 11.9879C9.74458 10.7584 10.7407 9.76219 11.97 9.76219C13.1993 9.76219 14.1954 10.7584 14.1954 11.9879C14.1954 13.2174 13.1993 14.2137 11.97 14.2137Z" fill="white"/>
</g>
<defs>
<clipPath id="clip0_1949_119">
<rect width="24" height="24" fill="white"/>
</clipPath>
</defs>
</svg>
