<svg width="33" height="32" viewBox="0 0 33 32" fill="none" xmlns="http://www.w3.org/2000/svg">
<path id="Vector" d="M29.1642 0H4.58817C2.46849 0 0.748169 1.70667 0.748169 3.80952V28.1905C0.748169 30.2933 2.46849 32 4.58817 32H29.1642C31.2838 32 33.0042 30.2933 33.0042 28.1905V3.80952C33.0042 1.70667 31.2838 0 29.1642 0ZM10.7322 12.1905V26.6667H6.12417V12.1905H10.7322ZM6.12417 7.97714C6.12417 6.91048 7.04577 6.09524 8.42817 6.09524C9.81057 6.09524 10.6784 6.91048 10.7322 7.97714C10.7322 9.04381 9.87201 9.90476 8.42817 9.90476C7.04577 9.90476 6.12417 9.04381 6.12417 7.97714ZM27.6282 26.6667H23.0202C23.0202 26.6667 23.0202 19.6114 23.0202 19.0476C23.0202 17.5238 22.2522 16 20.3322 15.9695H20.2707C18.4122 15.9695 17.6442 17.539 17.6442 19.0476C17.6442 19.741 17.6442 26.6667 17.6442 26.6667H13.0362V12.1905H17.6442V14.141C17.6442 14.141 19.1264 12.1905 22.1062 12.1905C25.1552 12.1905 27.6282 14.2705 27.6282 18.4838V26.6667Z" fill="#141414"/>
</svg>
