<svg width="32" height="32" viewBox="0 0 32 32" fill="none" xmlns="http://www.w3.org/2000/svg">
<g id="WhatsApp (1) 1">
<path id="Vector" d="M9.94022 25.2373L10.3476 25.4786C12.0587 26.4941 14.0206 27.0313 16.0213 27.0322H16.0255C22.1697 27.0322 27.1701 22.0329 27.1726 15.8884C27.1737 12.9108 26.0153 10.1108 23.9107 8.00449C22.8784 6.96574 21.6504 6.14205 20.2976 5.5811C18.9449 5.02015 17.4943 4.73309 16.0299 4.73654C9.88097 4.73654 4.88043 9.73526 4.87824 15.8794C4.87521 17.9775 5.46603 20.0336 6.5824 21.81L6.84762 22.2314L5.7213 26.3434L9.94022 25.2373ZM2.5011 29.5289L4.40394 22.5814C3.23041 20.5482 2.61302 18.2416 2.61375 15.8785C2.61685 8.4859 8.63289 2.47168 16.0257 2.47168C19.6132 2.4735 22.9805 3.8696 25.5129 6.40387C28.0454 8.93814 29.4388 12.3067 29.4375 15.8893C29.4342 23.2814 23.4172 29.2967 16.0255 29.2967H16.0197C13.7753 29.2958 11.5698 28.7327 9.61083 27.6645L2.5011 29.5289Z" fill="#141414"/>
<path id="Vector_2" fill-rule="evenodd" clip-rule="evenodd" d="M12.5359 10.1356C12.2847 9.57763 12.0204 9.56633 11.7818 9.55667L11.1394 9.54883C10.9159 9.54883 10.5528 9.63268 10.2459 9.96808C9.9389 10.3035 9.07288 11.1141 9.07288 12.7628C9.07288 14.4116 10.2738 16.0047 10.4411 16.2286C10.6084 16.4524 12.7594 19.9437 16.1657 21.2869C18.9963 22.4032 19.5723 22.1812 20.187 22.1254C20.8016 22.0696 22.1697 21.3148 22.4487 20.5322C22.7278 19.7497 22.728 19.0793 22.6443 18.9391C22.5607 18.7989 22.3372 18.7156 22.0018 18.5479C21.6664 18.3802 20.0191 17.5696 19.712 17.4577C19.4048 17.3458 19.1815 17.2902 18.9579 17.6256C18.7342 17.961 18.0927 18.7154 17.8972 18.9391C17.7016 19.1628 17.5063 19.1908 17.1709 19.0233C16.8355 18.8558 15.7564 18.5018 14.4761 17.3602C13.4799 16.4719 12.8075 15.3749 12.6117 15.0397C12.4159 14.7045 12.5909 14.5229 12.759 14.356C12.9094 14.2058 13.094 13.9646 13.2619 13.769C13.4298 13.5734 13.485 13.4336 13.5966 13.2103C13.7081 12.987 13.6525 12.7909 13.5687 12.6234C13.4848 12.4559 12.8337 10.7984 12.5359 10.1356Z" fill="#141414"/>
</g>
</svg>
