<svg width="34" height="32" viewBox="0 0 34 32" fill="none" xmlns="http://www.w3.org/2000/svg">
<path id="Vector" fill-rule="evenodd" clip-rule="evenodd" d="M17.3434 0C8.27982 0 0.938721 7.3411 0.938721 16.4047C0.938721 23.6638 5.63457 29.795 12.1554 31.9687C12.9757 32.1122 13.2833 31.6201 13.2833 31.1894C13.2833 30.7998 13.2628 29.508 13.2628 28.1341C9.14107 28.8928 8.07477 27.1293 7.74667 26.2065C7.56212 25.7349 6.76239 24.279 6.06519 23.8893C5.49103 23.5818 4.67079 22.823 6.04468 22.8025C7.33655 22.782 8.25932 23.9919 8.56691 24.484C10.0433 26.9652 12.4015 26.268 13.3448 25.8374C13.4883 24.7711 13.9189 24.0534 14.3906 23.6433C10.7405 23.2332 6.92644 21.8183 6.92644 15.5435C6.92644 13.7594 7.56212 12.283 8.60792 11.1347C8.44387 10.7246 7.86971 9.04309 8.77197 6.78745C8.77197 6.78745 10.1459 6.35682 13.2833 8.46893C14.5956 8.09982 15.99 7.91527 17.3844 7.91527C18.7788 7.91527 20.1732 8.09982 21.4856 8.46893C24.623 6.33632 25.9969 6.78745 25.9969 6.78745C26.8992 9.04309 26.325 10.7246 26.1609 11.1347C27.2067 12.283 27.8424 13.7389 27.8424 15.5435C27.8424 21.8388 24.0078 23.2332 20.3578 23.6433C20.9525 24.1559 21.4651 25.1402 21.4651 26.6781C21.4651 28.8723 21.4446 30.6358 21.4446 31.1894C21.4446 31.6201 21.7522 32.1327 22.5724 31.9687C29.0523 29.795 33.7481 23.6433 33.7481 16.4047C33.7481 7.3411 26.407 0 17.3434 0Z" fill="#141414"/>
</svg>
